<svg width="32" height="32" viewBox="0 0 32 32" fill="none" xmlns="http://www.w3.org/2000/svg">
<g clip-path="url(#clip0_875_49468)">
<path d="M23 29H21V27H23V29ZM21 27H19V25H21V27ZM19 25H17V23H19V25ZM17 23H15V21H17V23ZM15 21H13V19H15V21ZM13 19H11V17H13V19ZM11 15V17H9V15H11ZM13 15H11V13H13V15ZM15 13H13V11H15V13ZM17 11H15V9H17V11ZM19 9H17V7H19V9ZM21 7H19V5H21V7ZM23 5H21V3H23V5Z" fill="#232323"/>
</g>
<defs>
<clipPath id="clip0_875_49468">
<rect width="32" height="32" fill="white"/>
</clipPath>
</defs>
</svg>
