<svg width="32" height="32" viewBox="0 0 32 32" fill="none" xmlns="http://www.w3.org/2000/svg">
<g clip-path="url(#clip0_875_51025)">
<path d="M12 29H9V27H12V29ZM9 27H7V5H9V27ZM15 27H12V25H15V27ZM18 25H15V23H18V25ZM21 23H18V21H21V23ZM24 21H21V19H24V21ZM26 19H24V17H26V19ZM28 17H26V15H28V17ZM26 15H24V13H26V15ZM24 13H21V11H24V13ZM21 11H18V9H21V11ZM18 9H15V7H18V9ZM15 7H12V5H15V7ZM12 5H9V3H12V5Z" fill="#232323"/>
</g>
<defs>
<clipPath id="clip0_875_51025">
<rect width="32" height="32" fill="white"/>
</clipPath>
</defs>
</svg>
