<svg width="24" height="24" viewBox="0 0 24 24" fill="none" xmlns="http://www.w3.org/2000/svg">
<g clip-path="url(#clip0_13167_13228)">
<path d="M9 19.5H7.5V18H9V19.5ZM7.5 18H6V16.5H7.5V18ZM10.5 18H9V16.5H10.5V18ZM6 16.5H4.5V15H6V16.5ZM12 16.5H10.5V15H12V16.5ZM4.5 15H3V13.5H4.5V15ZM13.5 15H12V13.5H13.5V15ZM3 13.5H1.5V12H3V13.5ZM15 13.5H13.5V12H15V13.5ZM16.5 12H15V10.5H16.5V12ZM18 10.5H16.5V9H18V10.5ZM19.5 9H18V7.5H19.5V9ZM21 7.5H19.5V6H21V7.5ZM22.5 6H21V4.5H22.5V6Z" fill="#232323"/>
</g>
<defs>
<clipPath id="clip0_13167_13228">
<rect width="24" height="24" fill="white"/>
</clipPath>
</defs>
</svg>
