<svg width="24" height="24" viewBox="0 0 24 24" fill="none" xmlns="http://www.w3.org/2000/svg">
<g clip-path="url(#clip0_875_51267)">
<path d="M5.25 20.25H3.75V18.75H5.25V20.25ZM20.25 20.25H18.75V18.75H20.25V20.25ZM6.75 18.75H5.25V17.25H6.75V18.75ZM18.75 18.75H17.25V17.25H18.75V18.75ZM8.25 17.25H6.75V15.75H8.25V17.25ZM17.25 17.25H15.75V15.75H17.25V17.25ZM9.75 15.75H8.25V14.25H9.75V15.75ZM15.75 15.75H14.25V14.25H15.75V15.75ZM11.25 14.25H9.75V12.75H11.25V14.25ZM14.25 14.25H12.75V12.75H14.25V14.25ZM11.25 11.25H9.75V9.75H11.25V11.25ZM14.25 11.25H12.75V9.75H14.25V11.25ZM9.75 9.75H8.25V8.25H9.75V9.75ZM15.75 9.75H14.25V8.25H15.75V9.75ZM8.25 8.25H6.75V6.75H8.25V8.25ZM17.25 8.25H15.75V6.75H17.25V8.25ZM6.75 6.75H5.25V5.25H6.75V6.75ZM18.75 6.75H17.25V5.25H18.75V6.75ZM5.25 3.75V5.25H3.75V3.75H5.25ZM20.25 5.25H18.75V3.75H20.25V5.25Z" fill="#232323"/>
</g>
<defs>
<clipPath id="clip0_875_51267">
<rect width="24" height="24" fill="white"/>
</clipPath>
</defs>
</svg>
