<svg width="24" height="24" viewBox="0 0 24 24" fill="none" xmlns="http://www.w3.org/2000/svg">
<path d="M16.5 18.75H7.5V17.25H16.5V18.75ZM7.5 17.25H4.5V15.75H7.5V17.25ZM19.5 17.25H16.5V15.75H19.5V17.25ZM4.5 15.75H3V14.25H4.5V15.75ZM14.25 15.75H9.75V14.25H14.25V15.75ZM21 15.75H19.5V14.25H21V15.75ZM3 14.25H1.5V12.75H3V14.25ZM9.75 14.25H8.25V9.75H9.75V14.25ZM15.75 14.25H14.25V9.75H15.75V14.25ZM22.5 14.25H21V12.75H22.5V14.25ZM1.5 12.75H0V11.25H1.5V12.75ZM24 11.25V12.75H22.5V11.25H24ZM3 11.25H1.5V9.75H3V11.25ZM22.5 11.25H21V9.75H22.5V11.25ZM4.5 9.75H3V8.25H4.5V9.75ZM14.25 9.75H9.75V8.25H14.25V9.75ZM21 9.75H19.5V8.25H21V9.75ZM7.5 8.25H4.5V6.75H7.5V8.25ZM19.5 8.25H16.5V6.75H19.5V8.25ZM16.5 6.75H7.5V5.25H16.5V6.75Z" fill="#232323"/>
</svg>
