<svg width="32" height="32" viewBox="0 0 32 32" fill="none" xmlns="http://www.w3.org/2000/svg">
<path d="M26 32H24V30H26V32ZM24 30H22V28H24V30ZM22 28H20V26H22V28ZM30 28H24V26H30V28ZM24 26H22V24H24V26ZM32 26H30V16H32V26ZM26 24H24V22H26V24ZM13 18H19V16H21V22H19V20H13V22H11V16H13V18ZM2 16H0V6H2V16ZM15 16H13V12H15V16ZM19 16H17V12H19V16ZM17 12H15V8H17V12ZM8 9.99609H6V7.99609H8V9.99609ZM10.002 7.99609H8.00195V5.99609H10.002V7.99609ZM8 6H2V4H8V6ZM12.002 5.99609H10.002V3.99609H12.002V5.99609ZM8.00195 1.99609H10.002V3.99609H8.00195V2H6.00195V0H8.00195V1.99609Z" fill="#232323"/>
</svg>
