<svg width="24" height="24" viewBox="0 0 24 24" fill="none" xmlns="http://www.w3.org/2000/svg">
  <path d="M12.75 22.5H11.25V21H12.75V22.5ZM11.25 21H9.75V19.5H11.25V21ZM14.25 21H12.75V19.5H14.25V21ZM9.75 19.5H8.25V18H9.75V19.5ZM15.75 19.5H14.25V18H15.75V19.5ZM8.25 18H6.75V15.75H8.25V18ZM17.25 18H15.75V15.75H17.25V18ZM6.75 15.75H5.25V13.5H6.75V15.75ZM18.75 15.75H17.25V13.5H18.75V15.75ZM5.25 13.5H3.75V6H5.25V13.5ZM14.25 13.5H9.75V12H14.25V13.5ZM20.25 13.5H18.75V6H20.25V13.5ZM9.75 12H8.25V7.5H9.75V12ZM15.75 12H14.25V7.5H15.75V12ZM14.25 7.5H9.75V6H14.25V7.5ZM6.75 6H5.25V4.5H6.75V6ZM18.75 6H17.25V4.5H18.75V6ZM8.25 4.5H6.75V3H8.25V4.5ZM17.25 4.5H15.75V3H17.25V4.5ZM15.75 3H8.25V1.5H15.75V3Z" fill="#232323"/>
</svg>
