<svg width="32" height="32" viewBox="0 0 32 32" fill="none" xmlns="http://www.w3.org/2000/svg">
<g clip-path="url(#clip0_875_53465)">
<path d="M17 31H15V29H17V31ZM15 29H13V25H15V29ZM19 29H17V25H19V29ZM13 25H11V21H13V25ZM21 25H19V21H21V25ZM11 21H7V19H11V21ZM23 21H21V16H23V21ZM7 19H3V17H7V19ZM3 17H1V15H3V17ZM25 16H23V12H25V16ZM7 15H3V13H7V15ZM11 13H7V11H11V13ZM27 12H25V8H27V12ZM16 11H11V9H16V11ZM20 9H16V7H20V9ZM29 3V8H27V5H24V3H29ZM24 7H20V5H24V7Z" fill="#232323"/>
</g>
<defs>
<clipPath id="clip0_875_53465">
<rect width="32" height="32" fill="white"/>
</clipPath>
</defs>
</svg>
