<svg width="32" height="32" viewBox="0 0 32 32" fill="none" xmlns="http://www.w3.org/2000/svg">
<g clip-path="url(#clip0_875_53468)">
<path d="M11 31H8V29H11V31ZM8 29H6V25H8V29ZM12 21H13V29H11V21H10V18H12V21ZM6 25H4V21H6V25ZM24 25H21V23H24V25ZM22 15H21V23H19V15H20V12H22V15ZM26 23H24V19H26V23ZM4 21H2V15H4V21ZM28 19H26V15H28V19ZM14 18H12V13H14V18ZM7 15H4V13H7V15ZM30 15H28V9H30V15ZM3 14H1V12H3V14ZM12 13H7V11H12V13ZM5 12H3V10H5V12ZM20 7V12H18V7H20ZM7 10H5V8H7V10ZM14 10H12V7H14V10ZM10 9H8V7H10V9ZM28 9H25V7H28V9ZM31 8H29V6H31V8ZM25 7H20V5H25V7ZM29 6H27V4H29V6ZM20 4H18V1H20V4ZM27 4H25V2H27V4ZM24 3H22V1H24V3Z" fill="#232323"/>
</g>
<defs>
<clipPath id="clip0_875_53468">
<rect width="32" height="32" fill="white"/>
</clipPath>
</defs>
</svg>
