<svg width="32" height="32" viewBox="0 0 32 32" fill="none" xmlns="http://www.w3.org/2000/svg">
<path d="M16.9997 27H14.9997V25H16.9997V27ZM14.9997 25H12.9997V23H14.9997V25ZM18.9997 25H16.9997V23H18.9997V25ZM12.9997 23H10.9997V21H12.9997V23ZM20.9997 23H18.9997V21H20.9997V23ZM10.9997 21H8.99969V19H10.9997V21ZM22.9997 21H20.9997V19H22.9997V21ZM8.99969 19H6.99969V17H8.99969V19ZM24.9997 19H22.9997V17H24.9997V19ZM6.99969 17H4.99969V9H6.99969V17ZM26.9997 17H24.9997V9H26.9997V17ZM16.9997 11H14.9997V9H16.9997V11ZM8.99969 9H6.99969V7H8.99969V9ZM13.0007 7H14.9997V9H12.9997V7H8.99969V5H13.0007V7ZM18.9997 9H16.9997V7H18.9997V9ZM23.0007 7H24.9997V9H22.9997V7H18.9997V5H23.0007V7Z" fill="#232323"/>
</svg>
