<svg width="32" height="32" viewBox="0 0 32 32" fill="none" xmlns="http://www.w3.org/2000/svg">
<path d="M10 30.001H8V24.001H10V30.001ZM20 24.001H21V28.001H22V30.001H19V24.001H18V22.001H20V24.001ZM12 24.001H10V22.001H12V24.001ZM14 22.001H12V20.001H14V22.001ZM18 22.001H16V20.001H18V22.001ZM16 20.001H14V18.001H16V20.001ZM14 18.001H12V10.001H14V18.001ZM18 18.001H16V12.001H18V18.001ZM10 17.001H8V10.001H10V17.001ZM24 16.001H22V14.001H24V16.001ZM22 12.001V14.001H20V12.001H22ZM20 12.001H18V8.00098H20V12.001ZM12 10.001H10V8.00098H12V10.001ZM18 8.00098H12V6.00098H18V8.00098ZM17.667 4.66797H15V2.00098H17.667V4.66797Z" fill="#232323"/>
</svg>
